<?xml version="1.0" encoding="utf-8"?>
<svg version="1.1" xmlns:xlink="http://www.w3.org/1999/xlink" width="601px" height="151px" xmlns="http://www.w3.org/2000/svg">
  <defs>
    <mask fill="white" id="clip22">
      <path d="M 0 141  L 0 0  L 591 0  L 591 141  L 391.79224137931 141  L 0 141  Z " fill-rule="evenodd" />
    </mask>
    <filter x="1161px" y="3015px" width="601px" height="151px" filterUnits="userSpaceOnUse" id="filter23">
      <feOffset dx="5" dy="5" in="SourceAlpha" result="shadowOffsetInner" />
      <feGaussianBlur stdDeviation="2.5" in="shadowOffsetInner" result="shadowGaussian" />
      <feComposite in2="shadowGaussian" operator="atop" in="SourceAlpha" result="shadowComposite" />
      <feColorMatrix type="matrix" values="0 0 0 0 0  0 0 0 0 0  0 0 0 0 0  0 0 0 0.349019607843137 0  " in="shadowComposite" />
    </filter>
    <g id="widget24">
      <path d="M 0 141  L 0 0  L 591 0  L 591 141  L 391.79224137931 141  L 0 141  Z " fill-rule="nonzero" fill="#015478" stroke="none" fill-opacity="0.968627450980392" transform="matrix(1 0 0 1 1161 3015 )" />
      <path d="M 0 141  L 0 0  L 591 0  L 591 141  L 391.79224137931 141  L 0 141  Z " stroke-width="4" stroke="#facd91" fill="none" stroke-opacity="0.654901960784314" transform="matrix(1 0 0 1 1161 3015 )" mask="url(#clip22)" />
    </g>
  </defs>
  <g transform="matrix(1 0 0 1 -1161 -3015 )">
    <use xlink:href="#widget24" filter="url(#filter23)" />
    <use xlink:href="#widget24" />
  </g>
</svg>