<?xml version="1.0" encoding="utf-8"?>
<svg version="1.1" xmlns:xlink="http://www.w3.org/1999/xlink" width="69px" height="66px" xmlns="http://www.w3.org/2000/svg">
  <defs>
    <filter x="24px" y="0px" width="69px" height="66px" filterUnits="userSpaceOnUse" id="filter37">
      <feOffset dx="7" dy="5" in="SourceAlpha" result="shadowOffsetInner" />
      <feGaussianBlur stdDeviation="2.5" in="shadowOffsetInner" result="shadowGaussian" />
      <feComposite in2="shadowGaussian" operator="atop" in="SourceAlpha" result="shadowComposite" />
      <feColorMatrix type="matrix" values="0 0 0 0 0  0 0 0 0 0  0 0 0 0 0  0 0 0 0.349019607843137 0  " in="shadowComposite" />
    </filter>
    <g id="widget38">
      <path d="M 52.5 2  C 67.34 2  79 13.44  79 28  C 79 42.56  67.34 54  52.5 54  C 37.66 54  26 42.56  26 28  C 26 13.44  37.66 2  52.5 2  Z " fill-rule="nonzero" fill="#f2f2f2" stroke="none" />
      <path d="M 52.5 1.5  C 67.62 1.5  79.5 13.16  79.5 28  C 79.5 42.84  67.62 54.5  52.5 54.5  C 37.38 54.5  25.5 42.84  25.5 28  C 25.5 13.16  37.38 1.5  52.5 1.5  Z " stroke-width="3" stroke="#7f7f7f" fill="none" />
    </g>
  </defs>
  <g transform="matrix(1 0 0 1 -24 0 )">
    <use xlink:href="#widget38" filter="url(#filter37)" />
    <use xlink:href="#widget38" />
  </g>
</svg>